<svg xmlns="http://www.w3.org/2000/svg" viewBox="0 0 44.97 27">
  <defs>
    <style>
      .cls-1 {
        fill: #a3a3a3;
      }

      .cls-2 {
        fill: #e0e0e0;
      }
    </style>
  </defs>
  <title>Asset 2</title>
  <g id="Layer_2" data-name="Layer 2">
    <g id="Layer_2-2" data-name="Layer 2">
      <g>
        <path class="cls-1" d="M36.55,27H8.42A8.42,8.42,0,0,1,3.21,12a8.46,8.46,0,0,1,8.28-7.28A13.47,13.47,0,0,1,29.7,2.63a8.33,8.33,0,0,1,2.16-.29,8.44,8.44,0,0,1,8.42,8.43V11a8.42,8.42,0,0,1-3.73,16Z"/>
        <path class="cls-2" d="M11.55,6.69a6.46,6.46,0,0,0-6.4,5.9l0,.47-.38.27A6.42,6.42,0,0,0,8.42,25H36.55a6.42,6.42,0,0,0,2.31-12.41l-.73-.28.1-.77a6.49,6.49,0,0,0,.05-.77,6.43,6.43,0,0,0-6.42-6.42,6.3,6.3,0,0,0-2.05.34l-.51.17-.43-.34A11.47,11.47,0,0,0,12.72,6.33l-.32.41-.65,0Z"/>
      </g>
    </g>
  </g>
</svg>
