<svg xmlns="http://www.w3.org/2000/svg" viewBox="0 0 49.45 31">
  <defs>
    <style>
      .cls-1 {
        fill: #a3a3a3;
      }

      .cls-2 {
        fill: #efefef;
      }
    </style>
  </defs>
  <title>Asset 12</title>
  <g id="Layer_2" data-name="Layer 2">
    <g id="Layer_2-2" data-name="Layer 2">
      <g>
        <path class="cls-1" d="M39.23,31h-29A10.22,10.22,0,0,1,9,10.63a7.14,7.14,0,0,1,8-5.28,15.48,15.48,0,0,1,26.68,6.21A10.23,10.23,0,0,1,39.23,31Z"/>
        <path class="cls-2" d="M15.94,7.27a5.16,5.16,0,0,0-5.09,4.43l-.12.83-.83,0A8.22,8.22,0,0,0,10.23,29h29a8.23,8.23,0,0,0,3.19-15.81L42,13l-.12-.5A13.48,13.48,0,0,0,18.15,7.07l-.4.49-.61-.14A5.06,5.06,0,0,0,15.94,7.27Z"/>
      </g>
    </g>
  </g>
</svg>
