<svg xmlns="http://www.w3.org/2000/svg" viewBox="0 0 47.24 33">
  <defs>
    <style>
      .cls-1 {
        fill: #a3a3a3;
      }

      .cls-2 {
        fill: #efefef;
      }
    </style>
  </defs>
  <title>Asset 19</title>
  <g id="Layer_2" data-name="Layer 2">
    <g id="Layer_2-2" data-name="Layer 2">
      <g>
        <path class="cls-1" d="M36.61,33h-26A10.63,10.63,0,0,1,6.69,12.49,16.07,16.07,0,0,1,34.2,5.21a6.87,6.87,0,0,1,8.43,6.68,7.18,7.18,0,0,1-.18,1.59A10.64,10.64,0,0,1,36.61,33Z"/>
        <path class="cls-2" d="M22.36,2A14.09,14.09,0,0,0,8.54,13.43L8.43,14l-.55.19A8.63,8.63,0,0,0,10.64,31h26a8.63,8.63,0,0,0,4.17-16.19L40,14.39l.3-.81a5,5,0,0,0,.31-1.69A4.87,4.87,0,0,0,35.77,7a5,5,0,0,0-1.57.26l-.65.23L33.11,7A14.07,14.07,0,0,0,22.36,2Z"/>
      </g>
    </g>
  </g>
</svg>
