<svg xmlns="http://www.w3.org/2000/svg" viewBox="0 0 45.33 27.58">
  <defs>
    <style>
      .cls-1 {
        fill: #a3a3a3;
      }

      .cls-2 {
        fill: #e5e5e5;
      }
    </style>
  </defs>
  <title>Asset 4</title>
  <g id="Layer_2" data-name="Layer 2">
    <g id="Layer_2-2" data-name="Layer 2">
      <g>
        <path class="cls-1" d="M35.12,27.58H10.21a10,10,0,1,1,0-20h0A13.37,13.37,0,0,1,22.67,0,13.37,13.37,0,0,1,35.11,7.58h0a10,10,0,1,1,0,20Z"/>
        <path class="cls-2" d="M10.21,9.17a8.21,8.21,0,1,0,0,16.41H35.13a8.21,8.21,0,0,0,0-16.41l-.45,0-.81.05-.28-.63a12,12,0,0,0-21.84,0l-.29.63-.81-.05Z"/>
      </g>
    </g>
  </g>
</svg>
