<svg xmlns="http://www.w3.org/2000/svg" viewBox="0 0 45 23.96">
  <defs>
    <style>
      .cls-1 {
        fill: #a3a3a3;
      }

      .cls-2 {
        fill: #ededed;
      }
    </style>
  </defs>
  <title>Asset 3</title>
  <g id="Layer_2" data-name="Layer 2">
    <g id="Layer_2-2" data-name="Layer 2">
      <g>
        <path class="cls-1" d="M37.26,24H7.75A7.77,7.77,0,0,1,6.18,8.59C7.44,3.65,13.07,0,19.63,0A15.55,15.55,0,0,1,29.94,3.64a6.3,6.3,0,0,1,1.84-.27A6.51,6.51,0,0,1,38.1,8.49,7.76,7.76,0,0,1,37.26,24Z"/>
        <path class="cls-2" d="M19.63,2C13.72,2,8.72,5.28,8,9.64l-.12.75-.76.08A5.76,5.76,0,0,0,7.75,22H37.26a5.76,5.76,0,0,0,0-11.52h-.95l-.07-.93a4.46,4.46,0,0,0-6.16-3.8L29.47,6,29,5.49A13.32,13.32,0,0,0,19.63,2Z"/>
      </g>
    </g>
  </g>
</svg>
