<svg xmlns="http://www.w3.org/2000/svg" viewBox="0 0 46.48 27">
  <defs>
    <style>
      .cls-1 {
        fill: #a3a3a3;
      }

      .cls-2 {
        fill: #ededed;
      }
    </style>
  </defs>
  <title>Asset 16</title>
  <g id="Layer_2" data-name="Layer 2">
    <g id="Layer_2-2" data-name="Layer 2">
      <g>
        <path class="cls-1" d="M35,27H8.52A8.5,8.5,0,0,1,7.19,10.11a6,6,0,0,1,6-5.11,6,6,0,0,1,2.46.53A10.63,10.63,0,0,1,33.29,4.05,11.53,11.53,0,1,1,35,27Z"/>
        <path class="cls-2" d="M13.15,7a4,4,0,0,0-4,4V12l-1,.07a6.49,6.49,0,0,0,.35,13H35A9.54,9.54,0,1,0,35,5.93a9.25,9.25,0,0,0-1.89.19l-.65.13L32,5.71A8.64,8.64,0,0,0,17,7.31l-.49,1.15-1-.72A4,4,0,0,0,13.15,7Z"/>
      </g>
    </g>
  </g>
</svg>
