<svg xmlns="http://www.w3.org/2000/svg" viewBox="0 0 43 21.71">
  <defs>
    <style>
      .cls-1 {
        fill: #d6d6d6;
      }

      .cls-2 {
        fill: #fff;
      }
    </style>
  </defs>
  <title>Asset 7</title>
  <g id="Layer_2" data-name="Layer 2">
    <g id="Layer_2-2" data-name="Layer 2">
      <g>
        <path class="cls-1" d="M36.6,21.71H6.4a6.54,6.54,0,0,1,0-13.08A6,6,0,0,1,8,8.85a9.62,9.62,0,0,1,9.17-6.69h.46A8,8,0,0,1,30.23,4.33a6.36,6.36,0,0,1,5.95,4.38h.43A6.44,6.44,0,0,1,43,15.17,6.56,6.56,0,0,1,36.6,21.71Z"/>
        <path class="cls-2" d="M6.4,10.63a4.54,4.54,0,0,0,0,9.08H36.61A4.53,4.53,0,0,0,41,15.17a4.43,4.43,0,0,0-4.4-4.47,4.3,4.3,0,0,0-1,.08l-1,.22-.18-1a4.39,4.39,0,0,0-4.32-3.64l-.27,0L29,6.44l-.28-.69a6,6,0,0,0-9.94-1.87l-.33.36-.49,0c-.24,0-.49,0-.74,0a7.64,7.64,0,0,0-7.5,6.2l-.24,1.28-1.17-.56A4.42,4.42,0,0,0,6.4,10.63Z"/>
      </g>
    </g>
  </g>
</svg>
