<svg id="Landing_Pad" data-name="Landing Pad" xmlns="http://www.w3.org/2000/svg" viewBox="0 0 445 173.39">
  <defs>
    <style>
      .cls-1 {
        fill: #b3b3b3;
        stroke: #333;
      }

      .cls-1, .cls-2, .cls-3, .cls-5 {
        stroke-miterlimit: 10;
      }

      .cls-1, .cls-2, .cls-3 {
        stroke-width: 5px;
      }

      .cls-2 {
        fill: #999;
        stroke: #fff;
      }

      .cls-3, .cls-5 {
        fill: none;
      }

      .cls-3 {
        stroke: #fcee21;
      }

      .cls-4 {
        fill: #e6e6e6;
      }

      .cls-5 {
        stroke: #f2f2f2;
        stroke-width: 3px;
      }
    </style>
  </defs>
  <title>rch-github-logo</title>
  <g>
    <ellipse class="cls-1" cx="222.5" cy="86.69" rx="220" ry="84.19"/>
    <ellipse class="cls-2" cx="222.5" cy="86.69" rx="200" ry="76.54"/>
    <ellipse class="cls-3" cx="223.5" cy="90.69" rx="150" ry="57.4"/>
    <path d="M237.12,188.51c-26.18,4.26-41.32,28.5-33.85,54.14,6,20.52,24.62,35.71,45.23,38.78,2.49.06,2.94-1.52,2.58-2.76s-1.21-4-2.36-7.88c-12.36,4.95-17.77-3.63-17.77-3.63-3.72-5-7.25-5.93-7.25-5.93-5.13-2.18-.49-2.88-.49-2.88,4.85-.45,8.65,3.6,8.65,3.6,6.29,6.42,12.56,3.25,14.92,1.62-.44-3.07.18-5.32,1.2-6.7-10.86.55-23.09-1.64-28.27-19.43A16.65,16.65,0,0,1,221,224.19a17.47,17.47,0,0,1-3.17-12.36s3.61-1.89,14.42,2.64a43.83,43.83,0,0,1,11.38-3.5,48.74,48.74,0,0,1,12.31-.36c7.25-7.47,11.58-6.87,11.58-6.87,4.41,6,4.18,11,4,12.22A21.18,21.18,0,0,1,280,227.62c5.19,17.84-4.74,23.57-14.94,26.43,2.06,1.12,4.43,3.72,5.7,8.07,1.81,6.21,3.2,11.21,3.64,12.72.36,1.22,1.61,2.53,3.9,1.68,17.18-9.18,25.67-28.8,19.7-49.28-7.47-25.65-34.74-43-60.9-38.73" transform="translate(-27.5 -144.08)"/>
    <g>
      <path class="cls-4" d="M85.39,212.12l1.74.73-1.23,2.9,8.21,3.48L93.36,221l-8.2-3.47-1.23,2.9-1.74-.74Z" transform="translate(-27.5 -144.08)"/>
      <path class="cls-4" d="M90.3,208.66l5.36,3.9a.64.64,0,0,0,.42.15.58.58,0,0,0,.4-.23.59.59,0,0,0,.19-.39.64.64,0,0,0-.11-.38l-3-4.35a2.14,2.14,0,0,1-.44-1.42,2.5,2.5,0,0,1,.74-1.44,2.35,2.35,0,0,1,1.36-.84,2.17,2.17,0,0,1,1.43.33l4.54,2.63a.56.56,0,0,0,.77-.16.55.55,0,0,0,.19-.4.73.73,0,0,0-.2-.39l-4.26-5.11L99,199.21l4.29,5.21a2.39,2.39,0,0,1,.58,1.46,2.32,2.32,0,0,1-.75,1.61,2.41,2.41,0,0,1-1.35.84,2.2,2.2,0,0,1-1.47-.35l-4.55-2.63a.44.44,0,0,0-.38-.06.79.79,0,0,0-.35.24.54.54,0,0,0-.11.74l3,4.35a2.24,2.24,0,0,1,.44,1.46,2.44,2.44,0,0,1-.74,1.44,3.05,3.05,0,0,1-.78.64,1.9,1.9,0,0,1-.75.23,1.87,1.87,0,0,1-.73-.12,3.58,3.58,0,0,1-.72-.38L89.05,210Z" transform="translate(-27.5 -144.08)"/>
      <path class="cls-4" d="M105.64,194.66a3.53,3.53,0,0,1,2.79-.68,4.48,4.48,0,0,1,2.64,2,4.43,4.43,0,0,1,1,3.17,3.51,3.51,0,0,1-1.58,2.39l-1.45,1a3.52,3.52,0,0,1-2.79.69,4.42,4.42,0,0,1-2.64-2,4.49,4.49,0,0,1-1-3.17,3.54,3.54,0,0,1,1.59-2.39Zm-.38,2.27a2,2,0,0,0-1,1.42,4.14,4.14,0,0,0,2.29,3.24,2,2,0,0,0,1.66-.44l1.19-.84a2,2,0,0,0,1-1.42,3,3,0,0,0-.73-1.9,3.1,3.1,0,0,0-1.55-1.33,2,2,0,0,0-1.67.43Z" transform="translate(-27.5 -144.08)"/>
      <path class="cls-4" d="M118.8,184.33a4.07,4.07,0,0,1,1.52-.47,3.12,3.12,0,0,1,1.28.14,2.62,2.62,0,0,1,1,.65,3.68,3.68,0,0,1,.73,1,4.13,4.13,0,0,1,.39,1.17,3.05,3.05,0,0,1,0,1.24,3.13,3.13,0,0,1-.62,1.18,3.82,3.82,0,0,1-1.3,1l-3,1.5a.25.25,0,0,0-.12.37l1.75,3.49-1.68.85-1.92-3.82a1.46,1.46,0,0,1,.74-2.29L121,188.6a1.79,1.79,0,0,0,.56-.42,1.24,1.24,0,0,0,.26-.51,1.4,1.4,0,0,0,0-.54,1.7,1.7,0,0,0-.16-.53,1.58,1.58,0,0,0-.78-.75,1.42,1.42,0,0,0-1.2.13l-5,2.52-.85-1.69Z" transform="translate(-27.5 -144.08)"/>
      <path class="cls-4" d="M129.4,182.18a3.72,3.72,0,0,1,1.32-.32,2.3,2.3,0,0,1,1.07.18,2.18,2.18,0,0,1,.82.62,4.16,4.16,0,0,1,.58,1l1.52,3.67a3.47,3.47,0,0,1,.23.75,1.12,1.12,0,0,1,0,.58,1.28,1.28,0,0,1-.38.48,3.2,3.2,0,0,1-.77.42L130.1,191a2.91,2.91,0,0,1-2.27.19,2.62,2.62,0,0,1-1.34-1.49,3.33,3.33,0,0,1-.25-1,1.79,1.79,0,0,1,.16-.89,2.26,2.26,0,0,1,.63-.78,4.61,4.61,0,0,1,1.16-.66l3.71-1.54-.24-.6a1.24,1.24,0,0,0-.6-.65,1.27,1.27,0,0,0-1.05.07l-4.67,1.94-.63-1.51Zm3.36,6a.4.4,0,0,0,.26-.58l-.6-1.46-3.68,1.52a1.36,1.36,0,0,0-.77.61,1,1,0,0,0,0,.78,1,1,0,0,0,.54.58,1.26,1.26,0,0,0,.95-.09Z" transform="translate(-27.5 -144.08)"/>
      <path class="cls-4" d="M139.13,178.56a4.58,4.58,0,0,1,3.34-.13,3.52,3.52,0,0,1,1.88,2.24l1.54,4.49-1.62.56-1.54-4.49a1.93,1.93,0,0,0-1.06-1.26,2.87,2.87,0,0,0-2,.13L137,181c-.13,0-.17.14-.12.29l2.13,6.22-1.6.55-2.32-6.75a1.5,1.5,0,0,1-.08-1.06,1.29,1.29,0,0,1,.78-.56Z" transform="translate(-27.5 -144.08)"/>
      <path class="cls-4" d="M153,174.28l.45,1.57-4,1.17a1.94,1.94,0,0,0-1.38,1,4.16,4.16,0,0,0,1.1,3.8,2,2,0,0,0,1.71.13l4-1.16.46,1.58-4.18,1.21a3.52,3.52,0,0,1-2.87-.26,4.5,4.5,0,0,1-1.83-2.78,4.55,4.55,0,0,1,.06-3.33,3.54,3.54,0,0,1,2.29-1.75Z" transform="translate(-27.5 -144.08)"/>
      <path class="cls-4" d="M160.47,172.42a4.1,4.1,0,0,1,1.35-.12,2.51,2.51,0,0,1,1,.35,2.21,2.21,0,0,1,.72.74,4,4,0,0,1,.42,1l.94,3.85a3.54,3.54,0,0,1,.11.78,1,1,0,0,1-.13.57,1.07,1.07,0,0,1-.45.41,3.08,3.08,0,0,1-.82.3l-3.84.94a2.91,2.91,0,0,1-2.27-.15,2.63,2.63,0,0,1-1.1-1.68,3.13,3.13,0,0,1-.09-1,1.84,1.84,0,0,1,.29-.86,2.31,2.31,0,0,1,.74-.67,4.41,4.41,0,0,1,1.25-.48l3.91-.95-.16-.62a1.2,1.2,0,0,0-.48-.74,1.29,1.29,0,0,0-1-.09l-4.91,1.2-.39-1.59Zm2.4,6.41c.3-.07.42-.25.35-.53l-.38-1.54-3.87,1a1.28,1.28,0,0,0-.85.48,1,1,0,0,0-.09.77,1,1,0,0,0,.44.66,1.19,1.19,0,0,0,.95,0Z" transform="translate(-27.5 -144.08)"/>
      <path class="cls-4" d="M166.8,167.24l1.44,7,.77-.16c.32-.07.59-.13.8-.19a1.67,1.67,0,0,0,.52-.23.9.9,0,0,0,.31-.36,3.4,3.4,0,0,0,.24-.58l.87-2.78,1.8-.37-.9,2.9a5.26,5.26,0,0,1-.46,1,2.41,2.41,0,0,1-.72.74,2.14,2.14,0,0,1,1.07.37,5.05,5.05,0,0,1,1,.89l2,2.29-1.87.39L171.77,176a3.79,3.79,0,0,0-.47-.45,1.05,1.05,0,0,0-.47-.21,2.14,2.14,0,0,0-.63,0,7.36,7.36,0,0,0-.91.15l-.77.15.71,3.45-1.66.34-2.43-11.86Z" transform="translate(-27.5 -144.08)"/>
      <path class="cls-4" d="M180.46,168.39a2.94,2.94,0,0,1,2.25.3,2.6,2.6,0,0,1,1,1.77,2.37,2.37,0,0,1-.34,1.88,3.11,3.11,0,0,1-2.07,1l-4,.68.11.6a1.17,1.17,0,0,0,.43.78,1.3,1.3,0,0,0,1,.15l5.09-.87.28,1.62-5.09.88a3.74,3.74,0,0,1-1.37,0,2.26,2.26,0,0,1-1.66-1.2,3.73,3.73,0,0,1-.34-1.07l-.49-2.84a3.48,3.48,0,0,1,0-1.11,2.32,2.32,0,0,1,.36-1,2.43,2.43,0,0,1,.8-.72,3.81,3.81,0,0,1,1.3-.44Zm-3.35,4.32L181,172a1.41,1.41,0,0,0,.91-.43,1,1,0,0,0,.15-.77,1,1,0,0,0-.42-.71,1.21,1.21,0,0,0-.94-.13l-2.68.46a1.27,1.27,0,0,0-.93.5,1.17,1.17,0,0,0-.15.87Z" transform="translate(-27.5 -144.08)"/>
      <path class="cls-4" d="M192.47,166.59l.23,1.62-4.63.65a1.18,1.18,0,0,0-.8.35,1,1,0,0,0-.16.75.89.89,0,0,0,.34.64,1.47,1.47,0,0,0,1,.1l2-.28a4.76,4.76,0,0,1,1.46,0,2.27,2.27,0,0,1,1,.38,1.75,1.75,0,0,1,.56.68,3.71,3.71,0,0,1,.25,1.95,2.11,2.11,0,0,1-.37.87,2.55,2.55,0,0,1-.79.64,3.44,3.44,0,0,1-1.22.36l-4.87.69-.23-1.63,4.87-.69a1.27,1.27,0,0,0,.81-.33.86.86,0,0,0,.15-.74.83.83,0,0,0-.38-.68,1.48,1.48,0,0,0-.94-.09l-2,.28a4.37,4.37,0,0,1-1.45,0,2.35,2.35,0,0,1-1-.41,2.07,2.07,0,0,1-.56-.72,3.54,3.54,0,0,1-.25-.9,2.49,2.49,0,0,1,.38-1.88,2.89,2.89,0,0,1,2-.95Z" transform="translate(-27.5 -144.08)"/>
      <path class="cls-4" d="M207.43,162.6l.18,1.88-5.51.54a1.43,1.43,0,0,0-1,.47,1.26,1.26,0,0,0-.24.94,1.53,1.53,0,0,0,.11.47,1.14,1.14,0,0,0,.3.39,1.27,1.27,0,0,0,.51.24,2.52,2.52,0,0,0,.79,0l2.52-.24a4.81,4.81,0,0,1,1.83.1,2.88,2.88,0,0,1,1.17.61,2.47,2.47,0,0,1,.66,1,4.54,4.54,0,0,1,.27,1.13,4.14,4.14,0,0,1-.07,1.28,2.57,2.57,0,0,1-.51,1,2.86,2.86,0,0,1-1,.77,4.62,4.62,0,0,1-1.55.39l-6,.59-.18-1.88,6.05-.6a1.53,1.53,0,0,0,1.09-.48,1.36,1.36,0,0,0,.26-1,1.69,1.69,0,0,0-.13-.49,1,1,0,0,0-.31-.41,1.33,1.33,0,0,0-.55-.24,2.73,2.73,0,0,0-.83,0l-2.5.24a5,5,0,0,1-1.79-.09,2.8,2.8,0,0,1-1.15-.61,2.62,2.62,0,0,1-.64-1,4.37,4.37,0,0,1-.26-1.11,4.29,4.29,0,0,1,.06-1.25,2.42,2.42,0,0,1,.5-1,2.59,2.59,0,0,1,1-.75,4.45,4.45,0,0,1,1.5-.38Z" transform="translate(-27.5 -144.08)"/>
      <path class="cls-4" d="M212.1,160.92l.24,3.66,3-.2a4.57,4.57,0,0,1,3.26.76,3.51,3.51,0,0,1,1.24,2.64l.32,4.74-1.71.12-.32-4.74a1.92,1.92,0,0,0-.71-1.48,2.88,2.88,0,0,0-2-.41l-3,.2.46,6.8-1.69.11L210.41,161Z" transform="translate(-27.5 -144.08)"/>
      <path class="cls-4" d="M227.14,163.77a3.52,3.52,0,0,1,2.71.94,5.63,5.63,0,0,1,.25,6.36,3.52,3.52,0,0,1-2.63,1.14l-1.78.07a3.52,3.52,0,0,1-2.72-.94,5.65,5.65,0,0,1-.24-6.36,3.48,3.48,0,0,1,2.63-1.14Zm-1.55,1.69a2,2,0,0,0-1.59.67,4.17,4.17,0,0,0,.16,4,2,2,0,0,0,1.63.54l1.45-.06a2,2,0,0,0,1.59-.66,3,3,0,0,0,.42-2,3.1,3.1,0,0,0-.58-2,2,2,0,0,0-1.63-.54Z" transform="translate(-27.5 -144.08)"/>
      <path class="cls-4" d="M238.73,163.51l0,1.63-3,0a1,1,0,0,0-1.07,1.11l.09,5.73-1.7,0-.09-6a2.82,2.82,0,0,1,.49-1.88,2.25,2.25,0,0,1,1.76-.62Z" transform="translate(-27.5 -144.08)"/>
      <path class="cls-4" d="M241.13,163.5v-2h1.71v2h2.34v1.64l-2.34,0,0,4a1.45,1.45,0,0,0,.26,1,1.15,1.15,0,0,0,.87.28h1.17V172h-1.52a3.77,3.77,0,0,1-1.13-.15,1.74,1.74,0,0,1-.77-.48,2.11,2.11,0,0,1-.44-.9,6.11,6.11,0,0,1-.14-1.4l0-3.9H240v-1.63Z" transform="translate(-27.5 -144.08)"/>
    </g>
    <line class="cls-5" x1="226.6" y1="92.26" x2="221.33" y2="86.37"/>
    <line class="cls-5" x1="225.82" y1="85.13" x2="222.11" y2="93.5"/>
  </g>
</svg>
