<svg id="Layer_5" data-name="Layer 5" xmlns="http://www.w3.org/2000/svg" viewBox="0 0 403.41 224.92">
  <defs>
    <style>
      .cls-1 {
        fill: #ccc;
      }

      .cls-1, .cls-2, .cls-3, .cls-4, .cls-5, .cls-6, .cls-7, .cls-8, .cls-9 {
        stroke: #333;
        stroke-miterlimit: 10;
      }

      .cls-1, .cls-2, .cls-3, .cls-6 {
        stroke-width: 7px;
      }

      .cls-2, .cls-4 {
        fill: #b3b3b3;
      }

      .cls-3, .cls-8 {
        fill: #999;
      }

      .cls-5, .cls-6, .cls-7, .cls-9 {
        fill: none;
      }

      .cls-5 {
        stroke-width: 6px;
      }

      .cls-7, .cls-8 {
        stroke-width: 5px;
      }

      .cls-9 {
        stroke-width: 2px;
      }

      .cls-10 {
        fill: #ff6529;
      }
    </style>
  </defs>
  <title>rch-npm-hangar-logo</title>
  <path class="cls-1" d="M285.93,333.46H53.43V185.13l25-25h182.5l25,25Z" transform="translate(-49.93 -113.11)"/>
  <polygon class="cls-2" points="236 220.35 396.65 177.24 396.65 35.15 236 78.27 236 220.35"/>
  <polygon class="cls-3" points="236 78.27 204.75 47.02 365.4 3.9 396.65 35.15 236 78.27"/>
  <polygon class="cls-4" points="365.4 3.9 195.4 3.9 34.75 47.02 204.75 47.02 365.4 3.9"/>
  <line class="cls-5" x1="34.75" y1="47.02" x2="195.4" y2="3.9"/>
  <line class="cls-6" x1="195.4" y1="3.9" x2="365.4" y2="3.9"/>
  <line class="cls-7" x1="28.5" y1="47.02" x2="204.75" y2="47.02"/>
  <line class="cls-7" x1="204.75" y1="47.02" x2="365.4" y2="3.9"/>
  <rect class="cls-8" x="48.74" y="99.38" width="139.33" height="120.98"/>
  <line class="cls-9" x1="59.74" y1="220.35" x2="59.74" y2="99.38"/>
  <line class="cls-9" x1="69.74" y1="220.35" x2="69.74" y2="99.38"/>
  <line class="cls-9" x1="79.74" y1="220.35" x2="79.74" y2="99.38"/>
  <line class="cls-9" x1="89.74" y1="220.35" x2="89.74" y2="99.38"/>
  <line class="cls-9" x1="99.74" y1="220.35" x2="99.74" y2="99.38"/>
  <line class="cls-9" x1="109.74" y1="220.35" x2="109.74" y2="99.38"/>
  <line class="cls-9" x1="119.74" y1="220.35" x2="119.74" y2="99.38"/>
  <line class="cls-9" x1="129.74" y1="220.35" x2="129.74" y2="99.38"/>
  <line class="cls-9" x1="139.74" y1="220.35" x2="139.74" y2="99.38"/>
  <line class="cls-9" x1="149.74" y1="220.35" x2="149.74" y2="99.38"/>
  <line class="cls-9" x1="159.74" y1="220.35" x2="159.74" y2="99.38"/>
  <line class="cls-9" x1="169.74" y1="220.35" x2="169.74" y2="99.38"/>
  <line class="cls-9" x1="179.74" y1="220.35" x2="179.74" y2="99.38"/>
  <polygon class="cls-10" points="294.83 155.09 309.34 151.63 309.25 144.24 374.62 128.7 374.23 99.18 258.03 126.81 258.42 156.32 293.7 148.24 294.83 155.09"/>
  <g>
    <path d="M300.59,234.26l.58,44.29,36.32-8.64.09,7.38,29.06-6.91-.1-7.38,65.37-15.54-.58-44.28Zm36.8,28.26-7.26,1.72-.29-22.14-7.27,1.73.29,22.14-14.51,3.45L308,239.91,337,233Zm21.79-5.18.09,7.39-14.51,3.45-.49-36.9,29.06-6.91.39,29.51-14.54,3.46Zm65.37-15.55-7.24,1.73-.3-22.15-7.27,1.73.29,22.15L402.76,247l-.3-22.14-7.24,1.72.29,22.15L381,252.16l-.39-29.52,43.59-10.36Z" transform="translate(-49.93 -113.11)"/>
    <path d="M357.91,235.48l7.24-1.6.63,14.75-7.24,1.6Z" transform="translate(-49.93 -113.11)"/>
  </g>
</svg>
