<svg id="Launch_Pad" data-name="Launch Pad" xmlns="http://www.w3.org/2000/svg" viewBox="0 0 400.35 269.62">
  <defs>
    <style>
      .cls-1, .cls-11, .cls-9 {
        fill: #b3b3b3;
      }

      .cls-1, .cls-10, .cls-11, .cls-2, .cls-3, .cls-4, .cls-5, .cls-6, .cls-7, .cls-8, .cls-9 {
        stroke: #333;
        stroke-miterlimit: 10;
      }

      .cls-1, .cls-3 {
        stroke-width: 4px;
      }

      .cls-2, .cls-4, .cls-5 {
        fill: #999;
      }

      .cls-10, .cls-3, .cls-7, .cls-8 {
        fill: none;
      }

      .cls-4, .cls-7, .cls-9 {
        stroke-width: 5px;
      }

      .cls-5, .cls-8 {
        stroke-width: 7px;
      }

      .cls-6 {
        fill: gray;
      }

      .cls-10 {
        stroke-width: 3px;
      }
    </style>
  </defs>
  <title>rch-launchpad-logo</title>
  <g>
    <g id="side">
      <rect class="cls-1" x="37.43" y="17.64" width="39.64" height="206.13"/>
      <rect class="cls-1" x="90.78" y="2.64" width="39.64" height="200.63"/>
      <polygon class="cls-2" points="130.42 2.64 90.78 2.64 37.43 17.64 77.08 17.64 130.42 2.64"/>
      <line class="cls-3" x1="37.43" y1="17.64" x2="90.78" y2="2.64"/>
      <line class="cls-3" x1="90.78" y1="2.64" x2="130.42" y2="2.64"/>
      <line class="cls-3" x1="130.42" y1="2.64" x2="77.08" y2="17.64"/>
      <line class="cls-3" x1="77.08" y1="17.64" x2="37.43" y2="17.64"/>
    </g>
    <rect class="cls-4" x="3.6" y="226.67" width="232.5" height="39.64"/>
    <rect class="cls-5" x="164.25" y="181.22" width="232.5" height="39.64"/>
    <polygon class="cls-6" points="396.75 181.22 164.25 181.22 3.6 226.67 236.1 226.67 396.75 181.22"/>
    <line class="cls-7" x1="3.6" y1="226.67" x2="164.25" y2="181.22"/>
    <line class="cls-7" x1="164.25" y1="181.22" x2="396.75" y2="181.22"/>
    <line class="cls-8" x1="396.75" y1="181.22" x2="236.1" y2="226.67"/>
    <line class="cls-7" x1="236.1" y1="226.67" x2="3.6" y2="226.67"/>
    <polygon class="cls-9" points="396.75 220.86 396.75 181.22 236.1 226.67 236.1 266.32 396.75 220.86"/>
    <polygon class="cls-1" points="130.42 190.79 130.42 2.64 77.08 17.64 77.08 205.88 130.42 190.79"/>
    <line class="cls-10" x1="77.08" y1="201.04" x2="37.43" y2="181.22"/>
    <line class="cls-10" x1="37.43" y1="181.22" x2="77.08" y2="158.67"/>
    <line class="cls-10" x1="77.08" y1="161.04" x2="37.43" y2="141.22"/>
    <line class="cls-10" x1="37.43" y1="141.22" x2="77.08" y2="118.67"/>
    <line class="cls-10" x1="77.08" y1="121.04" x2="37.43" y2="101.22"/>
    <line class="cls-10" x1="37.43" y1="101.22" x2="77.08" y2="78.67"/>
    <line class="cls-10" x1="77.08" y1="81.04" x2="37.43" y2="61.22"/>
    <line class="cls-10" x1="37.43" y1="61.22" x2="77.08" y2="38.67"/>
    <polygon class="cls-11" points="298.46 192.58 182.21 192.58 101.89 215.31 218.14 215.31 298.46 192.58"/>
    <g>
      <path d="M164.28,140.55a11.32,11.32,0,0,1,4.41-.44,6.24,6.24,0,0,1,3,1.16,5.47,5.47,0,0,1,1.75,2.44A9.31,9.31,0,0,1,174,147a12.8,12.8,0,0,1-.36,3,12.5,12.5,0,0,1-1.12,3,11.94,11.94,0,0,1-4.95,4.95l7.06,10.26-5.89,1.58-6.93-9.89L153.93,162a.93.93,0,0,0-.77,1v11l-5.31,1.42v-12a6.29,6.29,0,0,1,1.13-4,6.66,6.66,0,0,1,3.64-2.1L164.46,154a6,6,0,0,0,1.93-.87,5.39,5.39,0,0,0,1.31-1.3,5.27,5.27,0,0,0,.74-1.55,5.54,5.54,0,0,0,.25-1.64,3.27,3.27,0,0,0-1-2.54c-.68-.61-1.75-.72-3.22-.33l-16.65,4.46V145Z" transform="translate(-56.49 -95.64)"/>
      <path d="M173,183.22v5.31l-11.74,3.15a10.91,10.91,0,0,0-6.41,4c-1.34,1.91-2,4.61-2,8.12s.66,5.82,2,7,3.47,1.39,6.44.59L173,208.29v5.31l-11.74,3.14q-6.66,1.78-10.19-1t-3.54-10.46q0-7.69,3.54-12.4a18.07,18.07,0,0,1,10.19-6.49Z" transform="translate(-56.49 -95.64)"/>
      <path d="M152.51,233.7v12.38L168,241.92V229.54l5.35-1.43v30.37L168,259.92V247.23l-15.53,4.15v12.7l-5.31,1.42V235.12Z" transform="translate(-56.49 -95.64)"/>
    </g>
  </g>
</svg>
