<svg id="Containers" xmlns="http://www.w3.org/2000/svg" viewBox="0 0 410.45 269.05">
  <defs>
    <style>
      .cls-1, .cls-3, .cls-4 {
        fill: #b3b3b3;
      }

      .cls-1, .cls-10, .cls-11, .cls-12, .cls-13, .cls-14, .cls-15, .cls-16, .cls-17, .cls-2, .cls-3, .cls-4, .cls-5, .cls-6, .cls-7, .cls-8, .cls-9 {
        stroke: #333;
      }

      .cls-1, .cls-10, .cls-11, .cls-12, .cls-13, .cls-14, .cls-15, .cls-16, .cls-17, .cls-19, .cls-2, .cls-3, .cls-4, .cls-5, .cls-6, .cls-7, .cls-8, .cls-9 {
        stroke-miterlimit: 10;
      }

      .cls-1, .cls-10, .cls-14, .cls-2, .cls-6 {
        stroke-width: 7px;
      }

      .cls-19, .cls-2, .cls-5 {
        fill: none;
      }

      .cls-12, .cls-16, .cls-4, .cls-8 {
        stroke-width: 5px;
      }

      .cls-13, .cls-17, .cls-5, .cls-9 {
        stroke-width: 3px;
      }

      .cls-6, .cls-7, .cls-8, .cls-9 {
        fill: gray;
      }

      .cls-10, .cls-11, .cls-12, .cls-13 {
        fill: #999;
      }

      .cls-14, .cls-15, .cls-16, .cls-17 {
        fill: #ccc;
      }

      .cls-18 {
        fill: #0080ff;
      }

      .cls-19 {
        stroke: #666;
        stroke-width: 2px;
      }
    </style>
  </defs>
  <title>rch-docker-logo</title>
  <g>
    <g>
      <rect class="cls-1" x="3.79" y="192.57" width="81.57" height="72.98"/>
      <rect class="cls-2" x="164.44" y="149.46" width="81.57" height="72.98"/>
      <g id="Roof">
        <polygon class="cls-3" points="246.01 149.46 164.44 149.46 3.79 192.57 85.36 192.57 246.01 149.46"/>
        <line class="cls-2" x1="3.79" y1="192.57" x2="164.44" y2="149.46"/>
        <line class="cls-2" x1="164.44" y1="149.46" x2="246.01" y2="149.46"/>
        <line class="cls-2" x1="246.01" y1="149.46" x2="85.36" y2="192.57"/>
        <line class="cls-2" x1="85.36" y1="192.57" x2="3.79" y2="192.57"/>
      </g>
      <polygon id="Side_Wall" data-name="Side Wall" class="cls-4" points="246.01 222.44 85.36 265.55 85.36 192.57 246.01 149.46 246.01 222.44"/>
      <line class="cls-5" x1="44.58" y1="192.57" x2="44.58" y2="265.55"/>
      <line class="cls-5" x1="31.7" y1="229.06" x2="57.7" y2="229.06"/>
    </g>
    <g>
      <rect class="cls-6" x="84.11" y="192.57" width="81.57" height="72.98"/>
      <rect class="cls-6" x="244.76" y="149.46" width="81.57" height="72.98"/>
      <g id="Roof-2" data-name="Roof">
        <polygon class="cls-7" points="326.33 149.46 244.76 149.46 84.11 192.57 165.69 192.57 326.33 149.46"/>
        <line class="cls-6" x1="84.11" y1="192.57" x2="244.76" y2="149.46"/>
        <line class="cls-6" x1="244.76" y1="149.46" x2="326.33" y2="149.46"/>
        <line class="cls-6" x1="326.33" y1="149.46" x2="165.69" y2="192.57"/>
        <line class="cls-6" x1="165.69" y1="192.57" x2="84.11" y2="192.57"/>
      </g>
      <polygon id="Side_Wall-2" data-name="Side Wall" class="cls-8" points="326.33 222.44 165.69 265.55 165.69 192.57 326.33 149.46 326.33 222.44"/>
      <line class="cls-9" x1="124.9" y1="192.57" x2="124.9" y2="265.55"/>
      <line class="cls-9" x1="112.02" y1="229.06" x2="138.02" y2="229.06"/>
    </g>
    <g>
      <rect class="cls-10" x="164.44" y="192.57" width="81.57" height="72.98"/>
      <rect class="cls-10" x="325.08" y="149.46" width="81.57" height="72.98"/>
      <g id="Roof-3" data-name="Roof">
        <polygon class="cls-11" points="406.66 149.46 325.08 149.46 164.44 192.57 246.01 192.57 406.66 149.46"/>
        <line class="cls-10" x1="164.44" y1="192.57" x2="325.08" y2="149.46"/>
        <line class="cls-10" x1="325.08" y1="149.46" x2="406.66" y2="149.46"/>
        <line class="cls-10" x1="406.66" y1="149.46" x2="246.01" y2="192.57"/>
        <line class="cls-10" x1="246.01" y1="192.57" x2="164.44" y2="192.57"/>
      </g>
      <polygon id="Side_Wall-3" data-name="Side Wall" class="cls-12" points="406.66 222.44 246.01 265.55 246.01 192.57 406.66 149.46 406.66 222.44"/>
      <line class="cls-13" x1="205.22" y1="192.57" x2="205.22" y2="265.55"/>
      <line class="cls-13" x1="192.34" y1="229.06" x2="218.34" y2="229.06"/>
    </g>
    <g>
      <rect class="cls-14" x="80.58" y="119.59" width="81.57" height="72.98"/>
      <rect class="cls-14" x="241.22" y="76.48" width="81.57" height="72.98"/>
      <g id="Roof-4" data-name="Roof">
        <polygon class="cls-15" points="322.8 76.48 241.22 76.48 80.58 119.59 162.15 119.59 322.8 76.48"/>
        <line class="cls-14" x1="80.58" y1="119.59" x2="241.22" y2="76.48"/>
        <line class="cls-14" x1="241.22" y1="76.48" x2="322.8" y2="76.48"/>
        <line class="cls-14" x1="322.8" y1="76.48" x2="162.15" y2="119.59"/>
        <line class="cls-14" x1="162.15" y1="119.59" x2="80.58" y2="119.59"/>
      </g>
      <polygon id="Side_Wall-4" data-name="Side Wall" class="cls-16" points="322.8 149.46 162.15 192.57 162.15 119.59 322.8 76.48 322.8 149.46"/>
      <line class="cls-17" x1="121.36" y1="119.59" x2="121.36" y2="192.57"/>
      <line class="cls-17" x1="108.48" y1="156.08" x2="134.48" y2="156.08"/>
    </g>
    <g>
      <rect class="cls-1" x="164.44" y="119.59" width="81.57" height="72.98"/>
      <rect class="cls-2" x="325.08" y="76.48" width="81.57" height="72.98"/>
      <g id="Roof-5" data-name="Roof">
        <polygon class="cls-3" points="406.66 76.48 325.08 76.48 164.44 119.59 246.01 119.59 406.66 76.48"/>
        <line class="cls-2" x1="164.44" y1="119.59" x2="325.08" y2="76.48"/>
        <line class="cls-2" x1="325.08" y1="76.48" x2="406.66" y2="76.48"/>
        <line class="cls-2" x1="406.66" y1="76.48" x2="246.01" y2="119.59"/>
        <line class="cls-2" x1="246.01" y1="119.59" x2="164.44" y2="119.59"/>
      </g>
      <polygon id="Side_Wall-5" data-name="Side Wall" class="cls-4" points="406.66 149.46 246.01 192.57 246.01 119.59 406.66 76.48 406.66 149.46"/>
      <line class="cls-5" x1="205.22" y1="119.59" x2="205.22" y2="192.57"/>
      <line class="cls-5" x1="192.34" y1="156.08" x2="218.34" y2="156.08"/>
    </g>
    <g>
      <rect class="cls-10" x="164.44" y="46.62" width="81.57" height="72.98"/>
      <rect class="cls-10" x="325.08" y="3.5" width="81.57" height="72.98"/>
      <g id="Roof-6" data-name="Roof">
        <polygon class="cls-11" points="406.66 3.5 325.08 3.5 164.44 46.62 246.01 46.62 406.66 3.5"/>
        <line class="cls-10" x1="164.44" y1="46.62" x2="325.08" y2="3.5"/>
        <line class="cls-10" x1="325.08" y1="3.5" x2="406.66" y2="3.5"/>
        <line class="cls-10" x1="406.66" y1="3.5" x2="246.01" y2="46.62"/>
        <line class="cls-10" x1="246.01" y1="46.62" x2="164.44" y2="46.62"/>
      </g>
      <polygon id="Side_Wall-6" data-name="Side Wall" class="cls-12" points="406.66 76.48 246.01 119.59 246.01 46.62 406.66 3.5 406.66 76.48"/>
      <line class="cls-13" x1="205.22" y1="46.62" x2="205.22" y2="119.59"/>
      <line class="cls-13" x1="192.34" y1="83.11" x2="218.34" y2="83.11"/>
    </g>
    <path class="cls-18" d="M339.19,255.45c-3.36.9-6.64-1.07-6.94-4.46a7.88,7.88,0,0,1,5.86-7.91c3.67-1,6.67,1.07,7,4.47s-2.51,7-5.86,7.89Zm75.58-54.72c-1.1-4.77-4.47-8-8.71-10l-1.65-.83-1.11,1.88c-2.18,3.44-2.71,8.64-2.09,12.26a13.8,13.8,0,0,0,3.39,7c-1.19,1-2.68,2-3.81,2.94a29.61,29.61,0,0,1-8.13,3.45L314,238.51l-.13,1.92a32.12,32.12,0,0,0,4.3,16.9l1.38,1.84,0,.3c8.44,10.4,22,12.45,36.28,8.63,27.43-7.35,48.88-25.43,57.27-54.25,7-1.57,13.91-5.31,16.63-13l.75-1.78-1.55-.54c-4.19-1.4-9.66-.27-14.11,2.2l-.09,0Zm-39.71,5.58-11.91,3.19,1.06,12.05,11.92-3.19-1.06-12.07v0Zm14.57-3.91-11.84,3.18,1,12,11.87-3.18-1.06-12.06,0,0ZM345.5,214.23l-11.84,3.17,1.06,12,11.88-3.18-1.06-12.06-.05,0Zm14.86-4-11.77,3.15,1.05,12,11.84-3.17-1.05-12.06-.08,0Zm-29.57,7.92L319,221.32l1,12.05L332,230.18l-1.06-12.06-.14,0Z" transform="translate(-41.44 -97.54)"/>
    <line class="cls-19" x1="270.99" y1="56.63" x2="270.99" y2="96.32"/>
    <line class="cls-19" x1="285.55" y1="52.66" x2="285.55" y2="92.35"/>
    <line class="cls-19" x1="299.28" y1="50.38" x2="299.28" y2="90.07"/>
    <line class="cls-19" x1="313.59" y1="46.62" x2="313.59" y2="86.31"/>
    <line class="cls-19" x1="330.75" y1="40.63" x2="330.75" y2="80.32"/>
    <line class="cls-19" x1="346.72" y1="36.79" x2="346.72" y2="76.48"/>
    <line class="cls-19" x1="360.72" y1="32.81" x2="360.72" y2="72.51"/>
    <line class="cls-19" x1="376.22" y1="27.77" x2="376.22" y2="67.46"/>
    <line class="cls-19" x1="389.07" y1="25.06" x2="389.07" y2="64.75"/>
    <line class="cls-19" x1="271.71" y1="203.44" x2="271.71" y2="243.14"/>
    <line class="cls-19" x1="286.26" y1="199.47" x2="286.26" y2="239.17"/>
    <line class="cls-19" x1="300" y1="197.19" x2="300" y2="236.88"/>
    <line class="cls-19" x1="314.31" y1="193.43" x2="314.31" y2="233.12"/>
    <line class="cls-19" x1="331.46" y1="187.44" x2="331.46" y2="227.14"/>
    <line class="cls-19" x1="347.44" y1="183.6" x2="347.44" y2="223.29"/>
    <line class="cls-19" x1="361.44" y1="179.63" x2="361.44" y2="219.32"/>
    <line class="cls-19" x1="376.94" y1="174.58" x2="376.94" y2="214.27"/>
    <line class="cls-19" x1="389.78" y1="171.87" x2="389.78" y2="211.56"/>
  </g>
</svg>
